<?xml version="1.0" standalone="no"?>
<!DOCTYPE svg PUBLIC "-//W3C//DTD SVG 20010904//EN"
 "http://www.w3.org/TR/2001/REC-SVG-20010904/DTD/svg10.dtd">
<svg version="1.0" xmlns="http://www.w3.org/2000/svg"
 width="1185.000000pt" height="876.000000pt" viewBox="0 0 1185.000000 876.000000"
 preserveAspectRatio="xMidYMid meet">
<metadata>
Created by potrace 1.16, written by Peter Selinger 2001-2019
</metadata>
<g transform="translate(0.000000,876.000000) scale(0.100000,-0.100000)"
fill="#000000" stroke="none">
<path d="M128 7888 c-1 -442 -1 -850 -1 -908 0 -58 1 -1629 1 -3492 l2 -3388
5700 0 5700 0 0 1605 c0 1418 2 1606 15 1611 20 8 20 60 0 68 -20 7 -20 60 0
76 8 7 15 25 15 41 0 19 -5 29 -15 29 -13 0 -15 293 -15 2580 l0 2580 -5700 0
-5700 0 -2 -802z m926 634 c3 -5 8 -95 12 -200 l7 -192 -71 0 -72 0 0 -299 c0
-263 -2 -300 -16 -305 -24 -9 -161 -7 -292 4 -64 5 -144 11 -177 13 l-60 3 -3
480 c-1 263 0 485 3 492 3 9 80 12 334 12 181 0 332 -4 335 -8z m1178 1 c2 -5
2 -95 0 -200 l-3 -193 -498 0 -498 0 -6 137 c-4 75 -7 165 -7 200 l0 63 504 0
c278 0 506 -3 508 -7z m1189 -118 c1 -69 2 -147 2 -175 0 -27 -1 -61 -2 -75
l-1 -25 -512 2 -513 3 -3 175 c-1 96 0 185 3 198 l5 22 510 0 510 0 1 -125z
m1257 -78 l2 -197 -547 2 -548 3 -3 185 c-1 101 0 190 2 197 4 11 112 13 548
11 l543 -3 3 -198z m1487 3 l0 -195 -645 -3 c-355 -1 -655 0 -667 3 -21 5 -22
9 -23 186 0 124 3 186 11 195 10 12 117 14 668 12 l656 -3 0 -195z m1273 -2
l2 -198 -555 0 -555 0 0 200 0 200 553 -2 552 -3 3 -197z m579 194 c6 -4 13
-23 15 -42 3 -31 6 -35 35 -38 30 -3 32 -1 40 40 7 37 12 43 37 46 16 2 40 1
53 -3 20 -5 24 -10 19 -29 -3 -13 -3 -38 0 -56 6 -28 10 -31 38 -28 29 3 31 6
34 50 2 25 9 51 16 57 9 8 80 11 217 9 l203 -3 -3 -105 c-2 -58 -6 -145 -10
-195 l-6 -90 -544 -3 c-368 -1 -548 1 -555 8 -11 11 -22 349 -12 375 4 13 36
15 208 15 112 0 208 -4 215 -8z m2037 -159 c-4 -93 -7 -181 -8 -198 l-2 -30
-588 -3 -589 -2 6 177 c4 98 10 188 13 201 l6 22 585 0 584 0 -7 -167z m1231
-228 l0 -390 -267 -3 -268 -2 -2 192 -3 193 -265 3 c-145 1 -268 6 -272 10 -7
7 9 355 17 380 4 10 115 12 532 10 l528 -3 0 -390z m-795 -3695 c0 -1922 0
-3510 0 -3527 l0 -33 -4130 0 c-3925 0 -4131 1 -4136 18 -11 36 -22 47 -45 47
-19 0 -25 -7 -29 -30 -5 -29 -6 -30 -72 -33 l-67 -3 -3 38 c-3 36 -5 38 -38
38 -33 0 -35 -2 -38 -38 l-3 -37 -372 2 -372 3 -2 3512 c-2 1931 0 3519 3
3527 6 15 445 16 4655 14 l4649 -3 0 -3495z m795 2725 l0 -450 -265 0 -265 0
-3 440 c-1 242 0 446 3 453 3 10 62 12 267 10 l263 -3 0 -450z m-10675 245
c69 -5 169 -10 223 -10 l97 0 0 -429 0 -429 -24 -6 c-26 -6 -480 11 -508 20
-16 5 -18 22 -18 165 l0 159 53 0 c70 0 97 9 97 30 0 24 -20 30 -91 30 l-60 0
3 38 c3 36 4 37 45 40 73 5 66 62 -8 62 l-39 0 0 168 c0 93 3 172 7 176 4 4
28 5 53 1 25 -3 101 -10 170 -15z m10678 -1162 l2 -338 -22 -5 c-13 -3 -133
-4 -268 -3 l-245 3 -3 343 -2 342 267 -2 268 -3 3 -337z m-10370 167 c9 -4 12
-89 12 -385 l0 -380 -275 0 -275 0 0 391 0 390 263 -6 c144 -4 268 -8 275 -10z
m10372 -1054 l0 -418 -262 -5 c-145 -3 -266 -3 -270 -1 -5 2 -8 193 -8 424 l0
419 270 0 270 0 0 -419z m-10360 -287 l0 -457 -47 7 c-27 3 -150 9 -275 13
l-228 6 0 444 0 443 275 0 275 0 0 -456z m10349 -268 c8 -9 11 -118 9 -382
l-3 -369 -268 -3 -267 -2 2 377 3 378 65 6 c36 3 151 6 256 7 151 2 194 -1
203 -12z m-10389 -300 c14 -2 28 -4 33 -5 4 0 7 -202 7 -448 l0 -446 -266 6
c-146 4 -270 10 -275 13 -5 3 -9 199 -9 451 l0 446 243 -7 c133 -4 253 -8 267
-10z m10398 -777 l2 -197 -35 -6 c-60 -12 -60 -51 0 -59 27 -3 30 -7 33 -44 3
-34 0 -42 -17 -48 -12 -3 -25 -3 -31 0 -17 10 -68 -5 -74 -22 -11 -28 14 -43
70 -43 l55 0 -3 -157 -3 -158 -267 -3 -268 -2 0 463 c0 255 3 467 7 470 4 4
124 6 267 5 l261 -3 3 -196z m-10393 -244 c11 -1 23 -3 28 -4 4 0 7 -216 7
-479 l0 -479 -187 -6 c-104 -4 -227 -7 -275 -7 l-88 0 0 496 0 495 248 -7
c136 -4 256 -8 267 -9z m10392 -940 c2 -190 -1 -326 -7 -335 -8 -12 -52 -15
-270 -19 l-260 -3 0 334 c0 184 3 338 7 341 4 4 124 6 267 5 l261 -3 2 -320z
m-10359 -672 l2 -523 -275 0 -275 0 0 515 0 515 23 5 c25 6 233 11 407 10
l115 0 3 -522z m10357 -198 l0 -400 -268 -3 -267 -2 2 397 3 398 210 6 c116 3
235 5 265 5 l55 -1 0 -400z m-10353 -712 l3 -268 197 -3 c195 -2 198 -3 203
-25 3 -12 4 -114 3 -227 l-3 -205 -477 -3 -478 -2 0 493 c0 272 3 497 7 500 3
4 127 7 275 7 l268 0 2 -267z m10353 -273 l0 -455 -500 0 -500 0 1 218 c1 120
5 221 9 225 4 4 106 9 228 12 l222 5 3 215 c1 118 4 221 7 228 3 10 62 12 267
10 l263 -3 0 -455z m-9353 -37 c15 -59 83 -55 90 5 3 26 6 27 57 27 52 0 54
-1 65 -35 17 -53 71 -53 81 0 2 13 8 27 13 32 5 5 123 7 263 6 l254 -3 3 -227
2 -228 -630 0 c-346 0 -630 3 -630 8 0 4 -2 101 -4 217 -1 116 -1 216 2 223 3
10 52 12 215 10 l211 -3 8 -32z m2318 30 c0 -5 1 -107 3 -228 l2 -220 -667 -3
-668 -2 0 230 0 230 665 0 c366 0 665 -3 665 -7z m1535 -223 l0 -225 -687 -3
-688 -2 0 223 c0 123 3 227 7 230 3 4 313 6 687 5 l681 -3 0 -225z m1499 43
c4 -104 8 -206 9 -228 l2 -40 -672 -3 -673 -2 0 230 0 230 664 0 664 0 6 -187z
m1330 179 c2 -4 6 -106 8 -227 l3 -220 -581 -3 -582 -2 -5 42 c-10 73 -20 395
-13 407 8 13 1162 16 1170 3z m1516 -222 l0 -230 -190 0 c-181 0 -190 1 -190
19 0 11 -10 27 -22 35 -26 19 -55 6 -60 -26 -3 -20 -10 -23 -60 -26 -51 -3
-58 -1 -58 16 0 48 -56 57 -72 12 l-10 -30 -342 2 -341 3 -3 228 -2 227 675 0
675 0 0 -230z"/>
<path d="M1730 8480 c0 -5 -6 -10 -14 -10 -17 0 -56 -47 -56 -67 0 -8 13 -28
29 -44 25 -24 38 -29 78 -29 59 0 93 28 93 77 0 30 -26 63 -48 63 -7 0 -12 5
-12 10 0 6 -16 10 -35 10 -19 0 -35 -4 -35 -10z"/>
<path d="M1472 8453 c-37 -18 -50 -54 -32 -88 27 -50 119 -62 164 -20 40 37
34 85 -15 110 -36 19 -76 19 -117 -2z"/>
<path d="M10780 8448 c-13 -7 -31 -26 -40 -40 -13 -25 -13 -30 2 -55 22 -36
81 -57 123 -43 47 16 79 53 71 84 -12 50 -104 81 -156 54z"/>
<path d="M11025 8443 c-64 -16 -86 -92 -37 -128 41 -30 124 -27 151 6 27 32
26 71 -1 96 -24 22 -79 35 -113 26z"/>
<path d="M442 5040 c-15 -14 -22 -33 -22 -56 0 -31 4 -36 45 -56 41 -20 48
-21 83 -9 41 15 72 45 72 70 0 9 -11 29 -25 44 -22 23 -34 27 -79 27 -39 0
-58 -5 -74 -20z"/>
<path d="M435 4835 c-33 -32 -31 -61 6 -96 41 -38 95 -40 138 -3 38 31 40 62
6 98 -20 21 -33 26 -75 26 -41 0 -56 -5 -75 -25z"/>
<path d="M708 694 c-58 -31 -44 -105 24 -126 82 -24 157 30 127 94 -21 47 -96
62 -151 32z"/>
<path d="M1023 653 c-27 -5 -63 -48 -63 -75 0 -10 12 -30 26 -43 55 -51 174
-21 174 43 -1 60 -57 90 -137 75z"/>
<path d="M10726 395 c-33 -30 -33 -64 -1 -99 33 -35 109 -37 148 -3 35 29 36
75 4 105 -34 32 -115 31 -151 -3z"/>
<path d="M11012 391 c-17 -17 -32 -34 -32 -40 0 -77 114 -116 181 -62 33 26
29 79 -8 108 -42 34 -100 31 -141 -6z"/>
</g>
</svg>
